<?xml version="1.0" encoding="UTF-8" standalone="no"?>
<!-- Created with Inkscape (http://www.inkscape.org/) -->

<svg
   xmlns:dc="http://purl.org/dc/elements/1.1/"
   xmlns:cc="http://creativecommons.org/ns#"
   xmlns:rdf="http://www.w3.org/1999/02/22-rdf-syntax-ns#"
   xmlns:svg="http://www.w3.org/2000/svg"
   xmlns="http://www.w3.org/2000/svg"
   xmlns:sodipodi="http://sodipodi.sourceforge.net/DTD/sodipodi-0.dtd"
   xmlns:inkscape="http://www.inkscape.org/namespaces/inkscape"
   width="48"
   height="48"
   id="svg2"
   version="1.1"
   inkscape:version="0.48.5 r10040"
   sodipodi:docname="ic_launcher.svg">
  <defs
     id="defs4" />
  <sodipodi:namedview
     id="base"
     pagecolor="#000000"
     bordercolor="#666666"
     borderopacity="1.0"
     inkscape:pageopacity="0"
     inkscape:pageshadow="2"
     inkscape:zoom="11.313708"
     inkscape:cx="9.2961345"
     inkscape:cy="24.122866"
     inkscape:document-units="px"
     inkscape:current-layer="g2989"
     showgrid="false"
     inkscape:window-width="1871"
     inkscape:window-height="1056"
     inkscape:window-x="49"
     inkscape:window-y="24"
     inkscape:window-maximized="1" />
  <metadata
     id="metadata7">
    <rdf:RDF>
      <cc:Work
         rdf:about="">
        <dc:format>image/svg+xml</dc:format>
        <dc:type
           rdf:resource="http://purl.org/dc/dcmitype/StillImage" />
        <dc:title />
      </cc:Work>
    </rdf:RDF>
  </metadata>
  <g
     inkscape:groupmode="layer"
     id="layer2"
     inkscape:label="Background"
     transform="translate(0,-132)"
     style="display:inline"
     sodipodi:insensitive="true">
    <rect
       style="fill:#73b4f1;fill-opacity:1;fill-rule:nonzero;stroke:none"
       id="rect2989"
       width="48"
       height="48"
       x="0"
       y="132"
       rx="2"
       ry="2" />
  </g>
  <g
     style="display:inline"
     transform="translate(0,-132)"
     inkscape:label="Shadow"
     id="g2989"
     inkscape:groupmode="layer">
    <path
       style="fill:#000000;fill-opacity:0.33333334;fill-rule:nonzero;stroke:none"
       d="m 26.25,3.875 -2.8125,16 -6.875,-6.84375 -8.125,4.25 L 10.59375,38.375 20.1875,48 46,48 c 1.108,0 2,-0.892 2,-2 L 48,22.5625 37.34375,11.90625 35.8125,13.4375 26.25,3.875 z"
       transform="translate(0,132)"
       id="rect2991"
       inkscape:connector-curvature="0" />
  </g>
  <g
     inkscape:label="Power Symbol"
     inkscape:groupmode="layer"
     id="layer1"
     transform="translate(0,-1004.3622)"
     style="display:inline"
     sodipodi:insensitive="true">
    <g
       id="g3020"
       transform="translate(-78.285714,1013.3622)">
      <path
         id="path3010"
         d="M 0,0 H 48 V 48 H 0 z"
         inkscape:connector-curvature="0"
         style="fill:none" />
    </g>
    <path
       id="path3012"
       d="m 26.353456,1008.3622 -4.705879,0 0,23.5294 4.705879,0 z m 8.388229,5.7294 -3.399997,3.4 c 4.058821,2.4823 6.776466,6.9412 6.776466,12.047 0,7.8 -6.317643,14.1176 -14.117638,14.1176 -7.799994,0 -14.1176378,-6.3176 -14.1176378,-14.1176 0,-5.1058 2.7176458,-9.5647 6.7764668,-12.047 l -3.399998,-3.4 c -4.8823488,3.4 -8.082347,9.047 -8.082347,15.447 0,10.4 8.423523,18.8236 18.823516,18.8236 10.399993,0 18.823518,-8.4236 18.823518,-18.8236 0,-6.4 -3.199998,-12.047 -8.082349,-15.447 z"
       inkscape:connector-curvature="0"
       sodipodi:nodetypes="cccccccsssccsssc"
       style="fill:#ff7400;fill-opacity:1" />
  </g>
</svg>
