<?xml version="1.0" encoding="UTF-8" standalone="no"?>
<!-- Created with Inkscape (http://www.inkscape.org/) -->

<svg
   xmlns:dc="http://purl.org/dc/elements/1.1/"
   xmlns:cc="http://creativecommons.org/ns#"
   xmlns:rdf="http://www.w3.org/1999/02/22-rdf-syntax-ns#"
   xmlns:svg="http://www.w3.org/2000/svg"
   xmlns="http://www.w3.org/2000/svg"
   xmlns:xlink="http://www.w3.org/1999/xlink"
   xmlns:sodipodi="http://sodipodi.sourceforge.net/DTD/sodipodi-0.dtd"
   xmlns:inkscape="http://www.inkscape.org/namespaces/inkscape"
   width="48"
   height="48"
   id="svg2"
   version="1.1"
   inkscape:version="0.48.5 r10040"
   sodipodi:docname="ic_dialog_titlebar.svg">
  <defs
     id="defs4">
    <linearGradient
       id="linearGradient3762">
      <stop
         style="stop-color:#000000;stop-opacity:0;"
         offset="0"
         id="stop3764" />
      <stop
         style="stop-color:#000000;stop-opacity:0.13333334;"
         offset="1"
         id="stop3766" />
    </linearGradient>
    <radialGradient
       inkscape:collect="always"
       xlink:href="#linearGradient3762"
       id="radialGradient3772"
       cx="24.000456"
       cy="1028.3622"
       fx="24.000456"
       fy="1028.3622"
       r="21.176456"
       gradientTransform="matrix(1,0,0,1.0625007,0,-64.273364)"
       gradientUnits="userSpaceOnUse" />
    <filter
       inkscape:collect="always"
       id="filter3981">
      <feGaussianBlur
         inkscape:collect="always"
         stdDeviation="0.65514684"
         id="feGaussianBlur3983" />
    </filter>
  </defs>
  <sodipodi:namedview
     id="base"
     pagecolor="#000000"
     bordercolor="#666666"
     borderopacity="1.0"
     inkscape:pageopacity="0"
     inkscape:pageshadow="2"
     inkscape:zoom="8"
     inkscape:cx="1.086102"
     inkscape:cy="20.439603"
     inkscape:document-units="px"
     inkscape:current-layer="layer1"
     showgrid="false"
     inkscape:window-width="1871"
     inkscape:window-height="1056"
     inkscape:window-x="49"
     inkscape:window-y="24"
     inkscape:window-maximized="1" />
  <metadata
     id="metadata7">
    <rdf:RDF>
      <cc:Work
         rdf:about="">
        <dc:format>image/svg+xml</dc:format>
        <dc:type
           rdf:resource="http://purl.org/dc/dcmitype/StillImage" />
        <dc:title />
      </cc:Work>
    </rdf:RDF>
  </metadata>
  <g
     inkscape:label="Shadow"
     inkscape:groupmode="layer"
     id="layer1"
     transform="translate(0,-1004.3622)"
     style="display:inline">
    <g
       id="g3020"
       transform="translate(-78.285714,1013.3622)">
      <path
         id="path3010"
         d="M 0,0 H 48 V 48 H 0 z"
         inkscape:connector-curvature="0"
         style="fill:none" />
    </g>
    <path
       id="path3012"
       d="m 27.147865,1006.8618 -5.294114,0 0,26.4706 5.294114,0 z m 9.436758,6.4456 -3.824997,3.825 c 4.566174,2.7926 7.623524,7.8088 7.623524,13.5529 0,8.775 -7.107348,15.8823 -15.882342,15.8823 -8.774994,0 -15.8823426,-7.1073 -15.8823426,-15.8823 0,-5.7441 3.0573506,-10.7603 7.6235246,-13.5529 l -3.824998,-3.825 c -5.4926416,3.825 -9.0926396,10.1779 -9.0926396,17.3779 0,11.7 9.4764626,21.1765 21.1764556,21.1765 11.699992,0 21.176457,-9.4765 21.176457,-21.1765 0,-7.2 -3.599997,-13.5529 -9.092642,-17.3779 z"
       inkscape:connector-curvature="0"
       sodipodi:nodetypes="cccccccsssccsssc"
       style="fill:#000000;fill-opacity:0.33333334;filter:url(#filter3981);opacity:1" />
  </g>
  <g
     sodipodi:insensitive="true"
     style="display:inline"
     transform="translate(0,-1004.3622)"
     id="g2986"
     inkscape:groupmode="layer"
     inkscape:label="Power Symbol">
    <g
       transform="translate(-78.285714,1013.3622)"
       id="g2988">
      <path
         style="fill:none"
         inkscape:connector-curvature="0"
         d="M 0,0 H 48 V 48 H 0 z"
         id="path2990" />
    </g>
    <path
       style="fill:#ff7400;fill-opacity:1"
       sodipodi:nodetypes="cccccccsssccsssc"
       inkscape:connector-curvature="0"
       d="m 26.647513,1005.8622 -5.294114,0 0,26.4706 5.294114,0 z m 9.436758,6.4456 -3.824997,3.825 c 4.566174,2.7926 7.623524,7.8088 7.623524,13.5529 0,8.775 -7.107348,15.8823 -15.882342,15.8823 -8.774994,0 -15.882343,-7.1073 -15.882343,-15.8823 0,-5.7441 3.057351,-10.7603 7.623525,-13.5529 l -3.824998,-3.825 c -5.492642,3.825 -9.09264,10.1779 -9.09264,17.3779 0,11.7 9.476463,21.1765 21.176456,21.1765 11.699992,0 21.176457,-9.4765 21.176457,-21.1765 0,-7.2 -3.599997,-13.5529 -9.092642,-17.3779 z"
       id="path2992" />
  </g>
</svg>
